<!DOCTYPE svg PUBLIC "-//W3C//DTD SVG 20010904//EN" "http://www.w3.org/TR/2001/REC-SVG-20010904/DTD/svg10.dtd">
<svg version="1.0" xmlns="http://www.w3.org/2000/svg" width="296px" height="262px" viewBox="0 0 2960 2620" preserveAspectRatio="xMidYMid meet">
<g id="layer101" fill="#000000" stroke="none">
 <path d="M810 2578 c0 -16 180 -1079 186 -1100 5 -16 53 -18 712 -20 l707 -3 58 -23 c115 -47 186 -125 228 -249 62 -184 3 -331 -157 -394 -53 -20 -79 -23 -244 -27 l-185 -3 -44 86 c-62 123 -152 210 -286 278 -127 64 -169 67 -813 67 l-572 0 -16 25 c-9 14 -20 55 -25 93 -5 37 -15 105 -24 152 -8 47 -19 114 -25 150 -5 36 -16 106 -25 155 -30 165 -30 171 -3 178 43 12 213 8 230 -5 17 -13 25 -56 94 -468 18 -106 33 -169 42 -176 17 -13 140 -10 154 4 6 6 3 49 -7 113 -9 57 -21 136 -26 174 -5 39 -14 84 -18 100 -5 17 -12 53 -15 80 -9 68 -34 219 -48 280 -20 89 5 82 -322 84 -160 1 -297 -3 -305 -8 -16 -10 -14 -34 17 -206 12 -66 31 -176 42 -245 11 -69 34 -201 51 -295 16 -93 34 -202 39 -242 16 -126 -73 -112 723 -115 643 -3 695 -4 732 -21 22 -10 56 -25 75 -34 79 -35 170 -133 170 -183 0 -19 -6 -20 -107 -20 -293 -1 -1518 -13 -1521 -15 -2 -2 16 -113 39 -247 23 -133 45 -266 48 -294 12 -93 -55 -85 715 -82 l681 3 79 28 c89 31 116 49 195 127 61 60 94 133 107 237 l6 52 202 3 c232 5 285 17 396 91 120 80 180 194 180 341 -1 253 -145 486 -365 587 -141 64 -121 62 -790 66 l-610 4 -61 362 c-34 199 -59 365 -57 370 2 4 58 7 123 7 116 0 120 -1 125 -22 5 -25 105 -623 105 -632 0 -3 45 -6 100 -6 66 0 100 4 100 11 0 14 -129 786 -137 817 l-5 22 -324 0 c-241 0 -324 -3 -324 -12z m638 -2005 c573 -7 539 -1 498 -89 -36 -78 -105 -138 -190 -167 -44 -15 -114 -17 -630 -17 l-581 0 -12 28 c-7 15 -18 73 -24 130 -11 89 -11 105 1 112 18 12 263 12 938 3z"/>
 </g>
<g id="layer102" fill="#000000" stroke="none">
 <path d="M810 2578 c0 -16 180 -1079 186 -1100 5 -16 53 -18 712 -20 l707 -3 58 -23 c115 -47 186 -125 228 -249 62 -184 3 -331 -157 -394 -53 -20 -79 -23 -244 -27 l-185 -3 -44 86 c-62 123 -152 210 -286 278 -127 64 -169 67 -813 67 l-572 0 -16 25 c-9 14 -20 55 -25 93 -5 37 -15 105 -24 152 -8 47 -19 114 -25 150 -5 36 -16 106 -25 155 -30 165 -30 171 -3 178 43 12 213 8 230 -5 17 -13 25 -56 94 -468 18 -106 33 -169 42 -176 17 -13 140 -10 154 4 6 6 3 49 -7 113 -9 57 -21 136 -26 174 -5 39 -14 84 -18 100 -5 17 -12 53 -15 80 -9 68 -34 219 -48 280 -20 89 5 82 -322 84 -160 1 -297 -3 -305 -8 -16 -10 -14 -34 17 -206 12 -66 31 -176 42 -245 11 -69 34 -201 51 -295 16 -93 34 -202 39 -242 16 -126 -73 -112 723 -115 643 -3 695 -4 732 -21 22 -10 56 -25 75 -34 79 -35 170 -133 170 -183 0 -19 -6 -20 -107 -20 -293 -1 -1518 -13 -1521 -15 -2 -2 16 -113 39 -247 23 -133 45 -266 48 -294 12 -93 -55 -85 715 -82 l681 3 79 28 c89 31 116 49 195 127 61 60 94 133 107 238 l7 52 181 0 c153 0 193 3 256 21 86 23 184 75 174 91 -4 7 -2 8 4 4 15 -9 84 54 78 71 -3 8 -2 12 3 8 13 -8 46 51 65 114 9 30 16 85 16 123 0 67 -27 218 -39 218 -4 0 -7 9 -8 21 -6 70 -155 269 -196 261 -4 -1 -6 3 -5 9 4 16 -114 84 -189 108 -37 12 -95 26 -128 31 -34 6 -312 10 -630 10 l-570 0 -61 363 c-34 199 -59 365 -57 370 2 4 58 7 123 7 116 0 120 -1 125 -22 5 -25 105 -623 105 -632 0 -3 45 -6 100 -6 66 0 100 4 100 11 0 14 -129 786 -137 817 l-5 22 -324 0 c-241 0 -324 -3 -324 -12z m638 -2005 c573 -7 539 -1 498 -89 -36 -78 -105 -138 -190 -167 -44 -15 -114 -17 -630 -17 l-581 0 -12 28 c-7 15 -18 73 -24 130 -11 89 -11 105 1 112 18 12 263 12 938 3z"/>
 </g>
<g id="layer103" fill="#000000" stroke="none">
 <path d="M61 2121 c-16 -10 -14 -34 17 -206 12 -66 31 -176 42 -245 11 -69 34 -201 51 -295 16 -93 34 -202 39 -242 16 -126 -73 -112 723 -115 643 -3 695 -4 732 -21 22 -10 56 -25 75 -34 50 -22 118 -79 144 -122 23 -37 66 -196 66 -245 0 -15 4 -35 9 -45 20 -37 -45 -139 -125 -197 -75 -53 -81 -54 -708 -54 l-581 0 -12 28 c-7 15 -18 73 -24 130 -11 89 -11 105 1 113 9 5 173 8 398 6 l384 -2 -6 29 c-4 17 -9 54 -13 83 -3 30 -9 56 -14 59 -10 5 -970 6 -976 0 -2 -2 15 -114 38 -248 23 -133 45 -266 48 -294 12 -93 -55 -85 715 -82 l681 3 79 28 c89 31 116 49 195 127 61 60 86 113 106 230 18 105 3 177 -60 307 -43 88 -68 125 -114 170 -77 75 -101 93 -186 136 -127 64 -169 67 -813 67 l-572 0 -16 25 c-9 14 -20 55 -25 93 -5 37 -15 105 -24 152 -8 47 -19 114 -25 150 -5 36 -16 106 -25 155 -30 165 -30 171 -3 178 43 12 213 8 230 -5 17 -13 25 -56 94 -468 18 -106 33 -169 42 -176 17 -13 140 -10 154 4 6 6 3 49 -7 113 -9 57 -21 136 -26 174 -5 39 -14 84 -18 100 -5 17 -12 53 -15 80 -9 68 -34 219 -48 280 -20 89 5 82 -322 84 -160 1 -297 -3 -305 -8z"/>
 </g>

</svg>