<!DOCTYPE svg PUBLIC "-//W3C//DTD SVG 20010904//EN" "http://www.w3.org/TR/2001/REC-SVG-20010904/DTD/svg10.dtd">
<svg version="1.0" xmlns="http://www.w3.org/2000/svg" width="512px" height="512px" viewBox="0 0 5120 5120" preserveAspectRatio="xMidYMid meet">
<g id="layer101" fill="#ffffff" stroke="none">
 <path d="M2338 4643 c-1271 -1354 -1217 -1295 -1335 -1475 -448 -681 -386 -1591 152 -2237 348 -419 863 -661 1405 -661 762 0 1438 470 1725 1200 147 376 169 810 59 1193 -69 241 -188 469 -355 677 -67 83 -1374 1483 -1403 1502 -33 23 -57 3 -248 -199z m852 -604 c342 -363 650 -695 686 -737 192 -225 330 -508 395 -812 20 -90 23 -135 23 -320 0 -234 -10 -313 -63 -497 -55 -190 -129 -349 -240 -515 -614 -918 -1894 -1042 -2657 -257 -288 298 -456 651 -505 1064 -16 139 -6 403 21 530 63 296 203 584 393 806 102 120 1307 1399 1317 1399 5 0 289 -297 630 -661z"/>
 <path d="M2345 3609 c-894 -139 -1454 -1077 -1165 -1950 78 -235 191 -420 365 -594 279 -281 624 -425 1015 -425 298 0 561 81 812 251 118 80 294 256 374 374 260 382 335 844 209 1286 -148 520 -567 918 -1095 1041 -98 22 -413 33 -515 17z m415 -114 c281 -45 529 -174 736 -380 210 -210 342 -473 391 -780 19 -122 13 -371 -12 -485 -101 -458 -394 -819 -806 -995 -295 -127 -648 -138 -949 -30 -463 167 -805 583 -885 1080 -21 129 -19 329 5 467 100 582 565 1044 1136 1127 97 14 283 12 384 -4z"/>
 <path d="M1955 3276 c-73 -33 -115 -111 -115 -210 0 -55 -3 -66 -19 -71 -31 -10 -99 -90 -110 -131 -7 -26 -11 -259 -11 -691 l0 -653 -27 0 c-43 0 -50 10 -55 79 -5 68 -21 91 -64 91 -34 0 -54 -36 -54 -100 1 -110 62 -180 158 -180 39 0 40 -1 46 -42 13 -82 67 -147 150 -182 33 -14 36 -18 36 -55 0 -33 7 -49 36 -81 21 -23 51 -44 72 -50 49 -13 1074 -13 1122 0 55 15 101 69 108 125 4 42 8 49 40 62 81 34 135 99 148 181 6 41 7 42 46 42 101 0 164 77 156 193 -5 64 -22 87 -64 87 -33 0 -54 -37 -54 -95 0 -58 -12 -75 -52 -75 l-27 0 -3 668 -3 667 -25 45 c-14 24 -44 58 -67 75 -40 29 -42 32 -42 84 -1 76 -20 129 -61 172 -66 69 -157 74 -230 13 -44 -38 -53 -60 -59 -144 l-6 -75 -367 -3 -368 -2 0 62 c0 78 -28 140 -79 174 -46 30 -115 39 -156 20z m110 -130 c11 -16 15 -41 13 -73 l-3 -48 -64 -3 -64 -3 6 57 c3 32 13 64 23 75 25 27 70 25 89 -5z m1080 5 c11 -13 18 -38 19 -73 l1 -53 -62 -3 -63 -3 0 53 c0 32 6 62 16 76 19 28 64 29 89 3z m94 -254 c13 -6 34 -25 45 -40 20 -26 21 -44 24 -242 l3 -214 -23 -6 c-13 -3 -349 -4 -748 -3 l-725 3 0 217 c0 204 1 218 21 245 40 54 20 53 724 53 500 0 661 -3 679 -13z m-1366 -665 c66 -188 308 -261 471 -141 49 36 104 112 112 156 4 23 12 33 25 33 18 0 19 -14 19 -380 l0 -380 -345 0 -345 0 0 380 0 380 23 0 c18 0 26 -10 40 -48z m467 33 c0 -19 -57 -83 -89 -100 -78 -40 -163 -25 -228 40 -74 73 -70 75 137 75 151 0 180 -2 180 -15z m968 -362 l-3 -378 -342 -3 -343 -2 0 380 0 380 345 0 345 0 -2 -377z m-8 -519 c0 -16 -13 -39 -34 -60 l-34 -34 -666 0 c-575 0 -671 2 -696 15 -34 18 -50 43 -50 79 l0 26 740 0 740 0 0 -26z m-182 -236 c-6 -46 -21 -48 -563 -48 -446 0 -513 2 -533 16 -12 8 -22 24 -22 35 0 19 12 19 561 19 l560 0 -3 -22z"/>
 <path d="M1935 2782 c-44 -28 -66 -56 -75 -97 -21 -94 52 -185 150 -185 64 0 132 59 144 125 9 45 -24 118 -66 148 -39 29 -115 33 -153 9z m93 -104 c30 -30 -11 -85 -44 -57 -25 21 -11 69 21 69 6 0 16 -5 23 -12z"/>
 <path d="M3040 2782 c-50 -27 -84 -97 -75 -152 18 -106 141 -165 225 -107 92 61 95 185 8 250 -38 29 -114 33 -158 9z m98 -104 c29 -29 -4 -76 -42 -62 -30 11 -13 74 19 74 6 0 16 -5 23 -12z"/>
 <path d="M2377 2682 c-21 -23 -22 -52 -3 -78 13 -17 28 -19 186 -19 158 0 173 2 186 19 19 27 18 52 -6 76 -18 18 -33 20 -183 20 -146 0 -166 -2 -180 -18z"/>
 </g>

</svg>