<!DOCTYPE svg PUBLIC "-//W3C//DTD SVG 20010904//EN" "http://www.w3.org/TR/2001/REC-SVG-20010904/DTD/svg10.dtd">
<svg version="1.0" xmlns="http://www.w3.org/2000/svg" width="512px" height="512px" viewBox="0 0 5120 5120" preserveAspectRatio="xMidYMid meet">
<g id="layer101" fill="#ffffff" stroke="none">
 <path d="M737 5106 c-81 -17 -135 -59 -172 -131 l-30 -59 -3 -1974 c-1 -1410 1 -1986 9 -2015 9 -37 66 -98 432 -465 279 -279 436 -429 463 -442 41 -20 61 -20 1490 -18 1351 3 1452 4 1487 20 66 30 118 79 143 133 l24 51 1 2356 0 2356 -25 49 c-29 59 -82 108 -143 134 -43 18 -97 19 -1831 18 -1381 0 -1800 -3 -1845 -13z m3580 -206 c13 0 30 -11 38 -24 15 -22 16 -236 15 -2323 -1 -2282 -1 -2298 -21 -2318 -15 -16 -33 -20 -82 -20 -34 0 -648 1 -1363 3 l-1302 2 -4 317 c-4 263 -8 326 -22 362 -24 66 -61 108 -119 139 -51 26 -56 27 -222 27 l-170 0 0 -105 0 -105 141 -3 c125 -2 143 -5 159 -22 16 -18 17 -41 16 -232 -1 -117 -4 -214 -6 -217 -6 -6 -586 567 -609 601 -17 27 -18 95 -17 1955 2 1452 5 1931 14 1941 6 8 19 17 29 21 12 4 3196 6 3525 1z"/>
 <path d="M1494 4367 c-3 -8 -3 -56 -2 -108 l3 -94 850 0 850 0 3 108 3 107 -851 0 c-697 0 -852 -2 -856 -13z"/>
 <path d="M3414 4367 c-2 -7 -3 -56 -2 -108 l3 -94 105 0 105 0 0 105 0 105 -103 3 c-79 2 -104 0 -108 -11z"/>
 <path d="M1494 3827 c-3 -8 -3 -56 -2 -108 l3 -94 1065 0 1065 0 0 105 0 105 -1063 3 c-877 2 -1063 0 -1068 -11z"/>
 <path d="M1494 3297 c-3 -8 -3 -56 -2 -108 l3 -94 1065 0 1065 0 0 105 0 105 -1063 3 c-877 2 -1063 0 -1068 -11z"/>
 <path d="M1924 2767 c-2 -8 -3 -56 -2 -108 l3 -94 850 0 850 0 0 105 0 105 -848 3 c-698 2 -848 0 -853 -11z"/>
 <path d="M2627 2129 c-82 -19 -147 -77 -166 -146 -14 -51 -15 -1310 -1 -1384 12 -64 49 -114 111 -149 l44 -25 690 0 690 0 50 26 c36 18 59 39 80 74 l30 48 0 686 c0 747 0 741 -57 807 -64 72 -27 69 -768 71 -370 1 -682 -3 -703 -8z m1073 -219 c0 -26 -53 -109 -97 -152 -158 -153 -419 -159 -580 -12 -38 35 -113 145 -113 166 0 4 178 8 395 8 265 0 395 -3 395 -10z m-996 -59 c36 -121 141 -258 248 -326 27 -17 48 -34 48 -39 0 -5 -18 -37 -39 -71 -58 -91 -74 -146 -75 -250 0 -81 3 -97 31 -158 85 -180 274 -281 466 -249 137 24 249 110 310 240 30 62 32 75 32 172 0 93 -3 112 -27 162 -15 32 -40 77 -57 102 -17 25 -31 48 -31 53 0 4 23 22 51 38 110 65 238 239 255 347 19 114 24 -20 24 -597 l0 -635 -635 0 -635 0 0 635 c0 349 4 635 8 635 5 0 16 -27 26 -59z m691 -490 c80 -36 120 -111 113 -211 -8 -111 -86 -181 -202 -182 -189 -2 -272 202 -142 350 17 19 44 41 61 48 43 19 123 17 170 -5z"/>
 </g>

</svg>