<!DOCTYPE svg PUBLIC "-//W3C//DTD SVG 20010904//EN" "http://www.w3.org/TR/2001/REC-SVG-20010904/DTD/svg10.dtd">
<svg version="1.0" xmlns="http://www.w3.org/2000/svg" width="548px" height="560px" viewBox="0 0 5480 5600" preserveAspectRatio="xMidYMid meet">
<g id="layer101" fill="#ffffff" stroke="none">
 <path d="M2255 5511 c-83 -37 -128 -120 -123 -223 4 -82 40 -139 108 -178 l45 -25 358 -3 c307 -3 366 -1 414 13 99 29 182 21 426 -41 509 -129 940 -384 1210 -717 84 -103 189 -265 181 -278 -3 -5 -40 15 -82 45 -182 127 -343 180 -582 192 -140 7 -206 -5 -289 -53 -151 -88 -221 -216 -221 -405 0 -115 23 -220 86 -399 49 -139 191 -571 244 -739 62 -201 87 -268 116 -318 47 -80 102 -130 190 -173 73 -37 92 -42 173 -47 120 -6 197 14 298 80 41 27 77 47 80 44 2 -2 -7 -51 -20 -108 -140 -578 -490 -1078 -982 -1400 -309 -203 -628 -316 -1007 -357 -539 -59 -1137 122 -1608 487 -111 86 -298 274 -384 385 -206 267 -363 591 -417 864 -27 134 -23 144 37 103 199 -138 459 -124 615 32 80 80 127 187 209 475 38 136 51 176 192 603 l111 335 1 130 1 131 -38 76 c-94 192 -279 278 -535 248 -383 -44 -680 -246 -845 -575 -119 -237 -145 -432 -141 -1050 1 -247 5 -308 23 -410 69 -390 193 -711 388 -1010 177 -270 406 -509 668 -697 361 -259 742 -404 1215 -464 162 -20 480 -15 654 10 881 129 1596 643 1976 1421 108 220 183 444 225 666 36 194 44 325 39 612 l-5 277 23 0 c36 0 88 37 104 75 32 78 9 315 -56 562 -74 282 -226 584 -406 804 -224 274 -555 518 -904 667 -197 84 -311 119 -565 172 -247 51 -246 51 -293 95 -97 90 -68 85 -492 85 -342 0 -379 -2 -415 -19z"/>
 </g>

</svg>