<!DOCTYPE svg PUBLIC "-//W3C//DTD SVG 20010904//EN" "http://www.w3.org/TR/2001/REC-SVG-20010904/DTD/svg10.dtd">
<svg version="1.0" xmlns="http://www.w3.org/2000/svg" width="512px" height="512px" viewBox="0 0 5120 5120" preserveAspectRatio="xMidYMid meet">
<g id="layer101" fill="#ffffff" stroke="none">
 <path d="M385 4473 c-131 -16 -239 -81 -309 -188 -76 -113 -70 7 -73 -1518 -3 -947 0 -1380 7 -1407 20 -73 26 -75 346 -78 l283 -3 3 -283 c3 -318 5 -326 75 -345 53 -15 4273 -15 4326 0 21 6 44 21 55 37 16 25 17 127 17 1727 0 1601 -1 1703 -18 1756 -43 135 -144 237 -283 286 -46 17 -188 18 -2224 19 -1196 1 -2188 -1 -2205 -3z m136 -230 c35 -19 64 -43 84 -71 l30 -44 3 -1319 2 -1319 -215 0 -215 0 0 1303 c0 1241 1 1304 19 1342 36 79 117 134 197 135 25 0 61 -11 95 -27z m4254 8 c51 -23 93 -65 116 -116 18 -38 19 -110 19 -1662 l0 -1623 -2030 0 -2030 0 -2 1647 -3 1648 -22 55 c-13 30 -23 58 -23 63 0 4 885 7 1968 7 1887 0 1969 -1 2007 -19z"/>
 <path d="M1130 3823 c-19 -10 -40 -29 -47 -43 -18 -36 -18 -1124 0 -1160 7 -14 28 -33 47 -42 32 -17 91 -18 790 -18 699 0 758 1 790 18 19 9 40 28 47 42 10 19 13 155 13 573 0 467 -2 554 -15 581 -31 64 16 61 -825 64 -714 2 -767 1 -800 -15z m1430 -623 l0 -430 -640 0 -640 0 0 430 0 430 640 0 640 0 0 -430z"/>
 <path d="M3050 3823 c-65 -33 -77 -114 -24 -164 l26 -24 788 0 788 0 26 24 c33 31 41 72 22 113 -32 67 16 63 -826 66 -714 2 -767 1 -800 -15z"/>
 <path d="M3060 3403 c-30 -11 -60 -47 -66 -79 -8 -44 13 -85 56 -106 32 -17 91 -18 790 -18 699 0 758 1 790 18 50 25 67 64 49 116 -27 80 16 76 -844 75 -418 0 -767 -3 -775 -6z"/>
 <path d="M3027 2956 c-30 -28 -42 -65 -33 -102 4 -14 19 -37 33 -50 l26 -24 786 0 c730 0 788 2 807 18 54 43 55 112 3 156 l-31 26 -782 0 -783 0 -26 -24z"/>
 <path d="M1114 2322 c-12 -9 -27 -27 -33 -39 -17 -33 -15 -909 2 -943 25 -51 67 -62 228 -58 141 4 149 5 212 36 78 39 128 93 157 169 19 50 20 78 20 413 0 257 -3 367 -12 385 -25 56 -107 72 -155 31 l-28 -24 -5 -364 c-5 -398 -5 -394 -66 -423 -18 -8 -59 -15 -93 -15 l-61 0 0 368 c0 221 -4 382 -10 404 -19 68 -106 101 -156 60z"/>
 <path d="M1958 2311 l-33 -29 -3 -441 c-2 -293 1 -454 8 -481 19 -71 33 -75 286 -78 242 -4 294 3 320 43 19 29 21 78 4 110 -25 46 -63 55 -244 55 l-166 0 0 109 0 109 129 4 c120 3 131 5 155 27 33 31 41 72 22 113 -26 54 -48 62 -183 66 l-123 4 0 109 0 109 180 0 180 0 29 28 c46 42 46 100 0 143 l-31 29 -249 0 -249 0 -32 -29z"/>
 <path d="M3037 2329 c-10 -6 -72 -92 -138 -190 l-119 -180 0 -299 c0 -198 4 -307 11 -323 27 -59 116 -68 161 -18 l28 31 0 265 0 265 57 85 56 85 53 -79 53 -79 3 -269 c3 -303 6 -313 75 -332 30 -9 44 -7 73 7 58 28 60 40 60 326 l0 260 51 78 c28 43 55 78 59 78 4 0 31 -35 59 -78 l51 -78 0 -260 c0 -286 2 -298 60 -326 29 -14 43 -16 73 -7 71 19 72 25 72 360 l0 296 -123 185 c-124 187 -145 208 -200 208 -42 0 -67 -23 -134 -123 -33 -51 -64 -96 -68 -101 -5 -4 -40 39 -79 98 -39 58 -80 110 -90 116 -25 13 -81 12 -104 -1z"/>
 <path d="M4089 2311 c-38 -39 -40 -97 -5 -138 24 -28 25 -28 173 -33 160 -6 188 -15 211 -66 21 -46 15 -83 -21 -119 -27 -27 -43 -34 -93 -40 -79 -9 -174 -55 -219 -107 -73 -85 -95 -214 -55 -321 29 -76 79 -130 157 -169 63 -31 71 -32 212 -36 126 -3 151 -1 181 15 51 26 67 66 49 117 -22 63 -57 76 -207 76 -141 0 -175 11 -198 65 -27 67 13 139 85 150 144 22 205 53 267 133 124 163 50 408 -146 483 -42 16 -76 19 -206 19 l-156 0 -29 -29z"/>
 </g>

</svg>