<!DOCTYPE svg PUBLIC "-//W3C//DTD SVG 20010904//EN" "http://www.w3.org/TR/2001/REC-SVG-20010904/DTD/svg10.dtd">
<svg version="1.0" xmlns="http://www.w3.org/2000/svg" width="512px" height="512px" viewBox="0 0 5120 5120" preserveAspectRatio="xMidYMid meet">
<g id="layer101" fill="#ffffff" stroke="none">
 <path d="M2285 5048 c-483 -48 -983 -267 -1366 -596 -249 -215 -455 -484 -603 -786 -176 -359 -256 -704 -256 -1106 0 -402 80 -747 255 -1106 244 -497 642 -895 1139 -1138 359 -176 704 -256 1106 -256 402 0 747 80 1106 255 497 244 895 642 1138 1139 175 357 256 704 256 1101 0 688 -268 1323 -761 1801 -408 395 -933 639 -1493 693 -128 13 -392 12 -521 -1z m503 -419 c147 -16 283 -46 432 -95 1089 -361 1676 -1539 1314 -2634 -255 -769 -930 -1314 -1748 -1411 -129 -15 -462 -6 -579 15 -215 40 -398 101 -582 193 -926 462 -1367 1532 -1039 2523 175 528 559 967 1059 1211 202 98 459 174 675 198 110 12 356 13 468 0z"/>
 <path d="M2350 3650 l0 -200 210 0 210 0 0 200 0 200 -210 0 -210 0 0 -200z"/>
 <path d="M2350 3144 c0 -62 40 -233 74 -321 73 -183 191 -334 335 -428 106 -70 158 -148 181 -275 22 -119 -22 -241 -119 -333 -97 -93 -209 -130 -326 -110 -169 29 -286 148 -316 322 l-11 61 -210 0 -210 0 7 -62 c22 -200 90 -352 219 -486 101 -106 239 -188 386 -228 90 -25 309 -25 399 0 151 41 267 113 381 233 155 164 225 338 223 558 -1 173 -44 309 -143 455 -47 69 -147 165 -220 212 -71 45 -133 115 -170 193 -31 64 -60 170 -60 218 l0 27 -210 0 -210 0 0 -36z"/>
 </g>

</svg>